# xmcd
#
# Track frame offsets:
#	182
#	17625
#	33402
#	50875
#	65272
#	76642
#	87892
#	103042
#	117952
#	128967
#	142167
#	157462
#	173432
#	189182
#	200072
#	212477
#	230220
#	240425
#
# Disc length: 3401 seconds
#
# Revision: 0
# Processed by: cddbd v1.4PL0 Copyright (c) Steve Scherf et al.
# Submitted via: EasyCDDAExtractor 4.6.0.1
#
DISCID=f90d4712
DTITLE=Various Artist - A Down Home Country Christmas
DYEAR=1900
DGENRE=Xmas
TTITLE0=Winter Wonderland-Tanya Tucker
TTITLE1=Have Yourself A Merry Little Christmas-Eddie Rabbitt
TTITLE2=Hard Candy Christmas-Dolly Parton
TTITLE3=Blue Christmas-Sawyer Brown
TTITLE4=Jingle Bell Rock-Wild Rose
TTITLE5=Pretty Paper-Willie Nelson
TTITLE6=Silver Bells-Merle Haggard
TTITLE7=The Little Drummer Boy-Larry Gatlin
TTITLE8=The Star Carol-Tennessee Ernie Ford
TTITLE9=The Christmas Song-Roger Whittaker
TTITLE10=Let It Snow! Let It Snow! Let It Snow!-Lee Greenwood
TTITLE11=Colorado Christmas-The Nitty Gritty Dirt Band
TTITLE12=The First Noel-Suzy Bogguss
TTITLE13=God Rest Ye Merry, Gentleman-Gary Morris
TTITLE14=It Came Upon A Midnight Clear-Anne Murray
TTITLE15=O Holy Night-Glen Campbell
TTITLE16=Away In A Manger-Lacy J. Dalton
TTITLE17=White Christmas-Eddy Raven
EXTD=
EXTT0=
EXTT1=
EXTT2=
EXTT3=
EXTT4=
EXTT5=
EXTT6=
EXTT7=
EXTT8=
EXTT9=
EXTT10=
EXTT11=
EXTT12=
EXTT13=
EXTT14=
EXTT15=
EXTT16=
EXTT17=
PLAYORDER=
